<?xml version="1.0" encoding="UTF-8"?>
<svg version="1.1" xmlns="http://www.w3.org/2000/svg" width="334" height="334">
<path d="M0 0 C110.22 0 220.44 0 334 0 C334 110.22 334 220.44 334 334 C223.78 334 113.56 334 0 334 C0 223.78 0 113.56 0 0 Z " fill="#FDFDFD" transform="translate(0,0)"/>
<path d="M0 0 C110.22 0 220.44 0 334 0 C334 110.22 334 220.44 334 334 C223.78 334 113.56 334 0 334 C0 223.78 0 113.56 0 0 Z M42.39355469 56.46289062 C12.12614381 89.84824782 -1.09292249 133.66933449 0.76806641 178.04931641 C3.16657613 218.90477368 21.91432727 255.86439558 50 285 C50.66257813 285.71414063 51.32515625 286.42828125 52.0078125 287.1640625 C73.6167386 309.8579556 105.55923192 324.85487168 136 331 C137.50820313 331.30744141 137.50820313 331.30744141 139.046875 331.62109375 C181.03938344 338.63597131 225.98527543 328.54141923 261 304.4375 C263.01473468 302.9784667 265.0157465 301.50022401 267 300 C267.89460938 299.32839844 268.78921875 298.65679687 269.7109375 297.96484375 C304.05254678 271.02531155 327.07817344 230.78890472 332.4921875 187.47265625 C337.3080703 141.19423474 324.08124148 97.03502133 295 61 C292.10489479 57.55630002 289.10805756 54.25168314 286 51 C285.35417969 50.29101562 284.70835937 49.58203125 284.04296875 48.8515625 C256.56107515 19.74072301 214.41496976 1.95088182 174.703125 0.796875 C123.24038534 0.06531063 77.65198695 18.79342136 42.39355469 56.46289062 Z " fill="#FDFDFD" transform="translate(0,0)"/>
<path d="M0 0 C2.52732028 2.24047718 5.01215303 4.51927498 7.484375 6.8203125 C8.21269531 7.48289063 8.94101562 8.14546875 9.69140625 8.828125 C39.01175769 36.61642204 55.53041504 79.22848279 56.70703125 119.12109375 C57.15413187 143.54809691 54.30185274 168.58438603 43.484375 190.8203125 C42.89076172 192.05007812 42.89076172 192.05007812 42.28515625 193.3046875 C33.30288947 211.73248983 22.68232427 227.09495056 8.484375 241.8203125 C7.32228516 243.07714844 7.32228516 243.07714844 6.13671875 244.359375 C-20.47273958 272.34595054 -61.51005247 289.47294583 -99.80761719 290.94702148 C-145.24981771 291.95121583 -188.50945197 278.87672132 -222.04370117 247.13037109 C-223.07942934 246.13649213 -224.11283486 245.14018528 -225.14355469 244.14111328 C-226.29340649 243.03422747 -227.46814578 241.95327435 -228.6484375 240.87890625 C-252.46512823 218.60681262 -268.4952906 184.72372788 -273.515625 152.8203125 C-273.68118896 151.90330566 -273.84675293 150.98629883 -274.01733398 150.04150391 C-275.5039525 141.37477757 -275.95594097 132.85421137 -275.953125 124.0703125 C-275.9541925 123.35575897 -275.95526001 122.64120544 -275.95635986 121.90499878 C-275.92688546 108.11882393 -274.1482209 95.14953715 -270.515625 81.8203125 C-270.29632324 81.0061084 -270.07702148 80.1919043 -269.85107422 79.35302734 C-262.79925713 54.10910686 -249.26452666 31.00629663 -231.515625 11.8203125 C-230.81252197 11.05944336 -230.81252197 11.05944336 -230.09521484 10.28320312 C-170.87897242 -52.96094615 -68.26047289 -58.43786271 0 0 Z M-219.1875 3.64453125 C-221.00130815 5.33965061 -222.8179221 6.91277785 -224.765625 8.4453125 C-250.79324987 30.9237158 -265.09600673 65.91114917 -271.515625 98.8203125 C-271.78717407 100.20597412 -271.78717407 100.20597412 -272.06420898 101.61962891 C-272.5942011 105.37744213 -272.69645548 109.08018335 -272.71875 112.8671875 C-272.72445007 113.63726135 -272.73015015 114.40733521 -272.73602295 115.20074463 C-272.74543877 116.83124436 -272.75199329 118.46176282 -272.75585938 120.09228516 C-272.76543274 122.52152539 -272.79643114 124.94986894 -272.828125 127.37890625 C-273.06638083 162.70050132 -260.5817235 198.20902146 -238.515625 225.8203125 C-238.05575195 226.3982959 -237.59587891 226.9762793 -237.12207031 227.57177734 C-210.15274932 261.06887914 -172.00379655 281.68487035 -129.515625 287.8203125 C-126.77349414 287.95773215 -124.05567993 288.05381945 -121.3125 288.09375 C-120.13217697 288.11267807 -120.13217697 288.11267807 -118.92800903 288.13198853 C-92.10889756 288.47785262 -68.30467106 285.86129138 -43.515625 274.8203125 C-42.42217773 274.33473877 -42.42217773 274.33473877 -41.30664062 273.83935547 C-27.21284285 267.45168261 -14.21363902 258.94563279 -2.515625 248.8203125 C-1.98614258 248.36317871 -1.45666016 247.90604492 -0.91113281 247.43505859 C8.01389004 239.65523749 15.50491085 231.36912349 22.484375 221.8203125 C23.11730469 220.98113281 23.75023437 220.14195312 24.40234375 219.27734375 C34.42574474 205.58404766 40.90133835 190.76135136 46.484375 174.8203125 C46.9071875 173.65757812 47.33 172.49484375 47.765625 171.296875 C56.23015524 146.35216088 56.37152712 115.37959201 50.484375 89.8203125 C50.31808594 89.05154785 50.15179688 88.2827832 49.98046875 87.49072266 C47.28496852 75.21870911 43.03042727 64.07392726 37.484375 52.8203125 C36.99880127 51.82257813 36.99880127 51.82257813 36.50341797 50.8046875 C30.15903677 37.90304805 22.25354955 26.44542876 12.4375 15.92578125 C10.84376776 14.20773789 9.36978574 12.47165915 7.921875 10.6328125 C4.73354661 6.95397205 1.23523215 3.91447384 -2.515625 0.8203125 C-3.00708008 0.41119629 -3.49853516 0.00208008 -4.00488281 -0.41943359 C-22.88902868 -16.0494671 -44.29334086 -27.41289785 -68.08300781 -33.54638672 C-69.63203653 -33.94965654 -71.17649249 -34.37125393 -72.71386719 -34.81689453 C-122.96076727 -49.31251692 -181.80378247 -31.49834941 -219.1875 3.64453125 Z " fill="#1B1B1B" transform="translate(276.515625,42.1796875)"/>
<path d="M0 0 C3.0625 0.125 3.0625 0.125 5.0625 1.125 C5.0625 1.785 5.0625 2.445 5.0625 3.125 C5.7225 2.795 6.3825 2.465 7.0625 2.125 C12.02591236 1.51006396 15.83592035 1.38905221 20.1875 4 C22.8691231 8.46937183 22.88878231 12.03960797 22.0625 17.125 C21.0744624 20.33372406 19.95871859 23.34091986 18.0625 26.125 C17.0725 26.455 16.0825 26.785 15.0625 27.125 C14.35623761 29.11136298 13.69356429 31.11348259 13.0625 33.125 C11.5625 35.5 11.5625 35.5 10.0625 37.125 C9.4025 37.125 8.7425 37.125 8.0625 37.125 C7.815 37.7025 7.5675 38.28 7.3125 38.875 C5.88961157 41.43619917 4.1291952 43.0583048 2.0625 45.125 C1.0215934 46.76642963 0.01745674 48.43212215 -0.9375 50.125 C-3.31023582 53.68410373 -5.05880649 54.42048993 -8.9375 55.875 C-11.50649513 56.19612439 -12.76193801 55.44587692 -14.9375 54.125 C-14.9375 53.465 -14.9375 52.805 -14.9375 52.125 C-13.6175 52.125 -12.2975 52.125 -10.9375 52.125 C-10.6075 43.875 -10.2775 35.625 -9.9375 27.125 C-11.2575 26.795 -12.5775 26.465 -13.9375 26.125 C-14.671875 24.4453125 -14.671875 24.4453125 -14.9375 22.125 C-13.390625 19.6796875 -13.390625 19.6796875 -11.1875 17 C-7.67940484 12.44498639 -5.73706075 8.59467892 -4.41015625 3.0234375 C-3.64040761 -0.06828017 -3.32684845 0.14156802 0 0 Z " fill="#0C0C0C" transform="translate(48.9375,143.875)"/>
<path d="M0 0 C2.34564003 1.48557202 2.85066415 2.57561189 3.765625 5.17578125 C4.0865401 9.04280822 2.63593637 11.67694266 0.875 15 C0.57851562 15.60328125 0.28203125 16.2065625 -0.0234375 16.828125 C-2.12354542 20.92155569 -4.50638146 24.01107755 -8 27 C-10.8125 27.3125 -10.8125 27.3125 -13 27 C-12.50544966 22.22229045 -10.42693375 19.54063555 -7.5 15.8125 C-4.48208184 12.0824074 -4.48208184 12.0824074 -2 8 C-10.20783077 10.9859771 -16.37980663 16.38840156 -20.98046875 23.77734375 C-22.49774125 27.08511408 -22.45689217 29.42101134 -22 33 C-21.1646875 33.23783203 -21.1646875 33.23783203 -20.3125 33.48046875 C-14.68617729 35.2006789 -9.68273891 37.38043395 -5 41 C-3.38972746 44.22054507 -3.51871902 46.45055279 -4 50 C-7.00444158 53.58393328 -10.09983714 54.89320102 -14.6875 55.4375 C-17.7683921 55.03058972 -19.34357454 54.45674945 -22 53 C-23.99110401 52.61709538 -25.99100513 52.27395385 -28 52 C-27.67 50.68 -27.34 49.36 -27 48 C-26.18015625 48.01160156 -25.3603125 48.02320313 -24.515625 48.03515625 C-23.43796875 48.04417969 -22.3603125 48.05320313 -21.25 48.0625 C-20.18265625 48.07410156 -19.1153125 48.08570313 -18.015625 48.09765625 C-15.46631499 48.01510087 -13.42066409 47.74617558 -11 47 C-11.27617533 45.05925139 -11.27617533 45.05925139 -12 43 C-15.02992397 40.98005069 -16.87758277 40.49739327 -20.375 39.75 C-23.98681981 38.79322654 -26.62256055 38.02930038 -29.1875 35.25 C-31.42044999 31.24608968 -31.75519177 29.53115061 -31 25 C-26.96399197 13.68806922 -13.48086146 -2.8085128 0 0 Z " fill="#0D0D0D" transform="translate(211,142)"/>
<path d="M0 0 C1.99954746 -0.04254356 4.00041636 -0.04080783 6 0 C7 1 7 1 7.09765625 3.28515625 C7.08605469 4.20167969 7.07445312 5.11820313 7.0625 6.0625 C7.05347656 6.98160156 7.04445312 7.90070313 7.03515625 8.84765625 C7.02355469 9.55792969 7.01195312 10.26820313 7 11 C8.051875 10.649375 9.10375 10.29875 10.1875 9.9375 C13.7954681 9.05029473 15.52632489 8.94737118 19 10 C18.85636473 11.37523135 18.70996483 12.75017402 18.5625 14.125 C18.48128906 14.89070312 18.40007812 15.65640625 18.31640625 16.4453125 C17.96120001 19.31327401 17.49109894 22.1524515 17 25 C17.61488281 23.90300781 18.22976562 22.80601562 18.86328125 21.67578125 C19.67964917 20.22133265 20.49605756 18.76690677 21.3125 17.3125 C21.71662109 16.59126953 22.12074219 15.87003906 22.53710938 15.12695312 C24.639048 11.38447704 26.76578225 7.66585243 29 4 C30.32 4.33 31.64 4.66 33 5 C33.28671756 10.35206115 32.84981831 13.65568491 30.7265625 18.65625 C29.4839742 22.66459935 29.47346117 26.77757332 29.30859375 30.94921875 C29.00086621 33.99143654 28.27581425 36.23829767 27 39 C25.68 38.34 24.36 37.68 23 37 C23 31.06 23 25.12 23 19 C22.4225 20.5675 21.845 22.135 21.25 23.75 C18.43070619 30.74859906 18.43070619 30.74859906 15 33 C12.8125 32.875 12.8125 32.875 11 32 C8.19133467 26.38266934 10.23908978 17.992168 11 12 C8.45748398 12.24431996 8.45748398 12.24431996 6 14 C3.80131092 19.84388414 3.69927325 26.47512724 3.34375 32.65234375 C3 35 3 35 1 38 C0.01 38 -0.98 38 -2 38 C-3.19713711 34.40858866 -3.13248902 31.47319892 -3.125 27.6875 C-3.12757813 26.39199219 -3.13015625 25.09648437 -3.1328125 23.76171875 C-3.01427685 20.40437077 -2.64302729 17.2916873 -2 14 C-3.32 13.67 -4.64 13.34 -6 13 C-6 12.01 -6 11.02 -6 10 C-4.02 10 -2.04 10 0 10 C0 6.7 0 3.4 0 0 Z " fill="#0E0E0E" transform="translate(216,153)"/>
<path d="M0 0 C1.2065625 0.0309375 1.2065625 0.0309375 2.4375 0.0625 C1.98932012 5.15759753 1.33860761 10.01954355 -0.0625 14.9453125 C-1.51355868 21.08963908 -1.80016459 27.21881473 -1.875 33.5 C-1.91850586 34.71139648 -1.91850586 34.71139648 -1.96289062 35.94726562 C-2.02342231 41.72571346 -0.98194707 46.30673388 2.4375 51.0625 C3.4275 51.7225 4.4175 52.3825 5.4375 53.0625 C2.75 53.9375 2.75 53.9375 -0.5625 54.0625 C-4.13122685 50.88167824 -5.43325935 49.45829899 -5.875 44.6875 C-5.771875 43.82125 -5.66875 42.955 -5.5625 42.0625 C-6.2225 42.0625 -6.8825 42.0625 -7.5625 42.0625 C-7.8925 39.7525 -8.2225 37.4425 -8.5625 35.0625 C-8.79324219 35.59359375 -9.02398437 36.1246875 -9.26171875 36.671875 C-11.33710636 41.16718097 -13.08917512 44.55307385 -17.5625 47.0625 C-20.22265625 46.65234375 -20.22265625 46.65234375 -22.5625 46.0625 C-23.1164765 38.78694196 -23.05837646 33.00418713 -19.06640625 26.71484375 C-17.5625 25.0625 -17.5625 25.0625 -14.375 23.9375 C-11.5625 24.0625 -11.5625 24.0625 -9.5625 25.0625 C-9.46453125 24.33546875 -9.3665625 23.6084375 -9.265625 22.859375 C-5.88738074 0.14359465 -5.88738074 0.14359465 0 0 Z " fill="#0E0E0E" transform="translate(271.5625,139.9375)"/>
<path d="M0 0 C0.66 0 1.32 0 2 0 C2.47308594 1.00417969 2.94617188 2.00835937 3.43359375 3.04296875 C17.5220526 32.43490755 39.3203054 52.79109083 70 64 C74.59346668 65.41635379 79.24477975 66.31632263 84 67 C85.02222656 67.18175781 86.04445313 67.36351562 87.09765625 67.55078125 C117.81463513 71.08676981 148.0018671 64.59213125 173 46 C188.45087833 33.0354699 199.49361484 18.21367176 208 0 C208.66 0 209.32 0 210 0 C203.01288364 23.68264704 182.09527769 45.50987251 160.75927734 57.23095703 C132.33090895 72.10919141 99.77249585 75.64395848 68.875 66.3125 C40.27700797 55.87007967 17.18008658 35.92421502 3 9 C1.74980939 5.98998694 0.83076427 3.15690423 0 0 Z " fill="#272727" transform="translate(62,209)"/>
<path d="M0 0 C1.99183626 0.00314132 3.98365424 -0.02111404 5.9753418 -0.0456543 C32.24865709 -0.05862877 56.6825991 9.6471477 76.82495117 26.31567383 C78.09725586 27.34241211 78.09725586 27.34241211 79.39526367 28.38989258 C90.16326712 37.52075443 98.18541079 48.94301496 104.82495117 61.31567383 C103.83495117 61.31567383 102.84495117 61.31567383 101.82495117 61.31567383 C100.31713867 59.07739258 100.31713867 59.07739258 98.69995117 56.00317383 C95.03548978 49.46552887 90.80301469 43.90363254 85.82495117 38.31567383 C85.08760742 37.48293945 84.35026367 36.65020508 83.59057617 35.79223633 C73.65865833 25.2270754 61.07658904 17.09658968 47.82495117 11.31567383 C46.81303711 10.86579102 45.80112305 10.4159082 44.75854492 9.95239258 C23.1323307 0.95694887 -3.64824654 0.04558745 -26.17504883 6.31567383 C-28.03709961 6.82614258 -28.03709961 6.82614258 -29.93676758 7.34692383 C-44.27143182 11.70772611 -56.61095945 18.80919484 -68.17504883 28.31567383 C-69.56143555 29.4371582 -69.56143555 29.4371582 -70.97583008 30.58129883 C-81.21672915 39.33024231 -89.08392551 50.34346592 -95.17504883 62.31567383 C-95.83504883 62.31567383 -96.49504883 62.31567383 -97.17504883 62.31567383 C-93.9476703 51.02829763 -85.13144879 41.64248347 -77.17504883 33.31567383 C-76.63750977 32.7149707 -76.0999707 32.11426758 -75.54614258 31.49536133 C-56.68894979 11.17307336 -27.26252772 -0.08945051 0 0 Z " fill="#1B1B1B" transform="translate(163.175048828125,53.684326171875)"/>
<path d="M0 0 C0.84396749 14.36908752 -11.96839715 31.61365672 -21 42 C-21.33 42 -21.66 42 -22 42 C-22.47355131 33.81808573 -21.95482648 26.41333662 -20.1875 18.4375 C-19.9395166 17.29595459 -19.9395166 17.29595459 -19.68652344 16.13134766 C-18.08848117 9.35847739 -15.77012326 5.1426526 -10 1 C-6.78548731 -0.60725635 -3.56387464 -0.05748185 0 0 Z " fill="#F6F6F6" transform="translate(66,151)"/>
<path d="M0 0 C2.97 0.495 2.97 0.495 6 1 C5.855625 1.99257812 5.71125 2.98515625 5.5625 4.0078125 C4.30171723 13.08724635 3.74175666 21.81801452 4 31 C2.125 30.75 2.125 30.75 0 30 C-2.04416175 27.07223285 -2.3481881 24.25628406 -2.625 20.75 C-2.69976562 19.85796875 -2.77453125 18.9659375 -2.8515625 18.046875 C-2.90054688 17.37140625 -2.94953125 16.6959375 -3 16 C-3.37511719 16.78246094 -3.75023438 17.56492188 -4.13671875 18.37109375 C-4.64847656 19.38300781 -5.16023438 20.39492187 -5.6875 21.4375 C-6.18636719 22.44683594 -6.68523437 23.45617187 -7.19921875 24.49609375 C-9 27 -9 27 -11.58203125 27.97265625 C-12.37996094 27.98167969 -13.17789063 27.99070313 -14 28 C-16.36281649 25.63718351 -16.29567658 25.09388178 -16.3125 21.875 C-16.1698 15.96722005 -14.65388164 11.28121606 -11.1875 6.5 C-9 5 -9 5 -5.9375 5.0625 C-4.968125 5.041875 -3.99875 5.02125 -3 5 C-1.0645852 2.60943058 -1.0645852 2.60943058 0 0 Z " fill="#292929" transform="translate(85,158)"/>
<path d="M0 0 C0.66 0 1.32 0 2 0 C2.66588906 24.56390773 -0.11518922 49.62566673 -11 72 C-11.39574219 72.81984375 -11.79148437 73.6396875 -12.19921875 74.484375 C-21.17774798 92.90450947 -31.79231879 108.29087122 -46 123 C-47.28390625 124.36125 -47.28390625 124.36125 -48.59375 125.75 C-53.64268744 130.98593512 -58.74111514 135.28095247 -65 139 C-63.63221068 134.73219836 -61.82230516 132.58497797 -58.4375 129.6875 C-57.53773438 128.90117187 -56.63796875 128.11484375 -55.7109375 127.3046875 C-54.06021498 125.9013355 -52.40087448 124.50793471 -50.7265625 123.1328125 C-43.73324188 117.25034425 -38.42725754 110.29395759 -33 103 C-32.0409375 101.7315625 -32.0409375 101.7315625 -31.0625 100.4375 C-21.06271919 86.73409667 -14.58207198 71.93828446 -9 56 C-8.5771875 54.83726562 -8.154375 53.67453125 -7.71875 52.4765625 C-2.04701067 35.76211858 -1.32408856 17.46750938 0 0 Z " fill="#131313" transform="translate(331,161)"/>
<path d="M0 0 C4.75 0.75 4.75 0.75 7 3 C6.62436692 7.13196393 5.00737968 11.02715555 3.62109375 14.9140625 C2.85731432 17.11646845 2.85731432 17.11646845 3 20 C3.66 19.34 4.32 18.68 5 18 C3.87538058 24.15581157 2.50026691 30.23906329 1 36.3125 C0.7510498 37.3344043 0.7510498 37.3344043 0.49707031 38.37695312 C-0.41883758 42.03698586 -1.34492991 45.60004982 -3 49 C-5.125 49.8125 -5.125 49.8125 -7 50 C-11.45532454 36.63402638 -6.66424965 13.96377344 -0.91015625 1.671875 C-0.60980469 1.12015625 -0.30945313 0.5684375 0 0 Z " fill="#0E0E0E" transform="translate(146,148)"/>
<path d="M0 0 C1.125 4.75 1.125 4.75 0 7 C-1.98 7 -3.96 7 -6 7 C-5.566875 8.03125 -5.13375 9.0625 -4.6875 10.125 C-4.41679687 10.76953125 -4.14609375 11.4140625 -3.8671875 12.078125 C-2.9493681 14.20337914 -2.9493681 14.20337914 -1.3125 16.875 C0.41790473 20.99501125 0.90025225 24.59606334 0 29 C-2.4375 32 -2.4375 32 -5 34 C-5.495 34.495 -5.495 34.495 -6 35 C-12.46153846 35.35897436 -12.46153846 35.35897436 -16 33 C-16.58203125 30.90625 -16.58203125 30.90625 -16.8125 28.5 C-16.90144531 27.7059375 -16.99039063 26.911875 -17.08203125 26.09375 C-17 24 -17 24 -15 22 C-14.67 24.31 -14.34 26.62 -14 29 C-12.10820797 29.6814823 -12.10820797 29.6814823 -10 30 C-7.69368028 28.10429493 -7.69368028 28.10429493 -7.625 24.9375 C-7.96630465 21.35380113 -8.48816605 19.63625127 -10 16.5 C-11.91748723 12.48012499 -12.70803891 9.51374807 -12 5 C-8.34164784 0.36608726 -5.73802535 -0.12473968 0 0 Z " fill="#121212" transform="translate(136,157)"/>
<path d="M0 0 C3.76518481 1.2550616 4.08412535 2.386277 6.0625 5.75 C26.12028958 38.25455209 56.66660284 60.51474851 92.18359375 73.7734375 C95 75 95 75 96 77 C89.85454566 76.50171992 85.07358316 75.08729523 79.5 72.5 C78.72172852 72.14470215 77.94345703 71.7894043 77.14160156 71.42333984 C58.87132278 62.93303382 42.84223116 52.34666128 28.37207031 38.32080078 C27.22221851 37.21391497 26.04747922 36.13296185 24.8671875 35.05859375 C15.26268292 26.07697545 5.6904278 13.87454569 0 2 C0 1.34 0 0.68 0 0 Z " fill="#171717" transform="translate(23,248)"/>
<path d="M0 0 C0.33 0 0.66 0 1 0 C1.01458252 1.02657715 1.02916504 2.0531543 1.04418945 3.11083984 C1.10329482 7.01398202 1.18048949 10.91661254 1.26245117 14.81933594 C1.29518426 16.49079934 1.32336606 18.16235967 1.34643555 19.83398438 C1.75788795 48.89828213 9.35932624 74.97068361 22 101 C20.515 101.495 20.515 101.495 19 102 C10.33308693 84.62686813 3.03381447 67.27940161 0 48 C-0.16773926 47.09967041 -0.33547852 46.19934082 -0.50830078 45.27172852 C-1.99194965 36.80887424 -2.31027542 28.59261127 -2.26074219 20.0300293 C-2.24982764 17.77691891 -2.26080562 15.52457369 -2.2734375 13.27148438 C-2.27211895 11.83333158 -2.26956289 10.39517926 -2.265625 8.95703125 C-2.26336914 7.66772705 -2.26111328 6.37842285 -2.25878906 5.05004883 C-2 2 -2 2 0 0 Z " fill="#262626" transform="translate(3,147)"/>
<path d="M0 0 C1.99954746 -0.04254356 4.00041636 -0.04080783 6 0 C7 1 7 1 7.09765625 3.28515625 C7.08605469 4.20167969 7.07445312 5.11820313 7.0625 6.0625 C7.05347656 6.98160156 7.04445312 7.90070313 7.03515625 8.84765625 C7.02355469 9.55792969 7.01195312 10.26820313 7 11 C7.66 11.33 8.32 11.66 9 12 C8.01 12.66 7.02 13.32 6 14 C5.22984403 16.03930006 5.22984403 16.03930006 4.875 18.4375 C4.71773437 19.324375 4.56046875 20.21125 4.3984375 21.125 C3.86725326 24.9578588 3.56604065 28.79004367 3.34375 32.65234375 C3 35 3 35 1 38 C0.01 38 -0.98 38 -2 38 C-3.19713711 34.40858866 -3.13248902 31.47319892 -3.125 27.6875 C-3.12757813 26.39199219 -3.13015625 25.09648437 -3.1328125 23.76171875 C-3.01427685 20.40437077 -2.64302729 17.2916873 -2 14 C-3.32 13.67 -4.64 13.34 -6 13 C-6 12.01 -6 11.02 -6 10 C-4.02 10 -2.04 10 0 10 C0 6.7 0 3.4 0 0 Z " fill="#0B0B0B" transform="translate(216,153)"/>
<path d="M0 0 C2.625 0.25 2.625 0.25 4.23046875 1.37109375 C7.28334288 5.48434993 6.81265629 11.31645573 6.625 16.25 C5.77550767 19.34980313 5.11864354 20.00572081 2.625 22.25 C-1.125 23.125 -1.125 23.125 -4.375 23.25 C-7.69324927 19.41244912 -7.87378438 16.79816432 -7.7421875 11.86328125 C-7.10194452 7.30665832 -5.14652102 0.54173905 0 0 Z " fill="#111111" transform="translate(291.375,161.75)"/>
<path d="M0 0 C2.0625 0.1875 2.0625 0.1875 4 1 C5 4 5 4 5 6 C5.598125 5.79375 6.19625 5.5875 6.8125 5.375 C9 5 9 5 12 7 C12.73046875 10.0390625 12.73046875 10.0390625 13.1875 13.625 C13.34605469 14.81351563 13.50460938 16.00203125 13.66796875 17.2265625 C13.77753906 18.14179688 13.88710937 19.05703125 14 20 C12.68 20 11.36 20 10 20 C7.70366176 16.55549263 7.45983515 14.06187717 7 10 C3.33124668 13.93080713 1.78655829 17.87627946 0.125 22.890625 C-1 25 -1 25 -3.125 25.796875 C-3.74375 25.86390625 -4.3625 25.9309375 -5 26 C-5.32546559 17.63432896 -5.49971519 9.77000987 -2 2 C-1.34 1.34 -0.68 0.68 0 0 Z " fill="#101010" transform="translate(96,161)"/>
<path d="M0 0 C27.24173253 -0.63052081 27.24173253 -0.63052081 40 3 C41.20140625 3.32871094 42.4028125 3.65742187 43.640625 3.99609375 C58.59991671 8.51830641 71.98339449 16.05582355 84 26 C85.27230469 27.02673828 85.27230469 27.02673828 86.5703125 28.07421875 C97.33831595 37.20508061 105.36045962 48.62734113 112 61 C111.01 61 110.02 61 109 61 C107.4921875 58.76171875 107.4921875 58.76171875 105.875 55.6875 C102.21053861 49.14985504 97.97806351 43.58795871 93 38 C92.26265625 37.16726562 91.5253125 36.33453125 90.765625 35.4765625 C80.82236463 24.89933586 68.25221713 16.81017368 55 11 C54.05769531 10.56171875 53.11539063 10.1234375 52.14453125 9.671875 C35.78039472 2.64355246 17.6034133 1.38185278 0 1 C0 0.67 0 0.34 0 0 Z " fill="#1D1D1D" transform="translate(156,54)"/>
<path d="M0 0 C-0.14363527 1.37523135 -0.29003517 2.75017402 -0.4375 4.125 C-0.51871094 4.89070312 -0.59992188 5.65640625 -0.68359375 6.4453125 C-1.03821642 9.30856218 -1.5256881 12.15412857 -2 15 C0.64 10.38 3.28 5.76 6 1 C7 5 7 5 6 7 C5.34 7 4.68 7 4 7 C3.84144531 7.65226563 3.68289062 8.30453125 3.51953125 8.9765625 C1.94851015 14.86138187 0.25576977 18.62920943 -4 23 C-5.9375 22.625 -5.9375 22.625 -8 22 C-10.80866533 16.38266934 -8.76091022 7.992168 -8 2 C-8.66 1.67 -9.32 1.34 -10 1 C-6.21812119 -0.83691257 -4.05431692 -1.15837626 0 0 Z " fill="#111111" transform="translate(235,163)"/>
<path d="M0 0 C2.875 2.0625 2.875 2.0625 5 5 C5.1526226 9.3497442 4.71471806 11.2257221 1.75 14.4375 C-1.31174854 16.17712985 -2.56624271 16.77259539 -6 16 C-8.875 13.9375 -8.875 13.9375 -11 11 C-11.1526226 6.6502558 -10.71471806 4.7742779 -7.75 1.5625 C-4.68825146 -0.17712985 -3.43375729 -0.77259539 0 0 Z " fill="#242424" transform="translate(84,272)"/>
<path d="M0 0 C2.375 1.5625 2.375 1.5625 4 4 C4.5625 7.4375 4.5625 7.4375 4 11 C1.7150559 14.06835351 0.21262891 15.66652705 -3.5 16.6875 C-6.58541135 15.83901188 -8.20188728 14.33356804 -10.11328125 11.7890625 C-11.69594246 8.59585177 -11.05159647 6.27850664 -10 3 C-7.08550322 -0.34627408 -4.29616198 -0.62652362 0 0 Z " fill="#232323" transform="translate(139,26)"/>
<path d="M0 0 C2.80618215 2.35357213 2.97918231 3.8542762 3.5 7.5 C3 11 3 11 0.8125 13.4375 C-3.55172414 15.86206897 -3.55172414 15.86206897 -7 15 C-9.35867619 12.89770166 -10.64863355 11.72654553 -12 9 C-12.06562608 5.12806099 -11.83318187 3.02545461 -9.375 0 C-5.88418213 -1.46981805 -3.60851044 -0.98413921 0 0 Z " fill="#252525" transform="translate(85,50)"/>
<path d="M0 0 C1.875 0.30859375 1.875 0.30859375 3.875 1.30859375 C5.50647635 4.57154645 5.5043407 7.79418554 4.875 11.30859375 C3.25 13.80859375 3.25 13.80859375 0.875 15.30859375 C-2.43623632 15.79148238 -4.421549 15.60478364 -7.5 14.30859375 C-9.61555621 11.70483226 -9.63355515 9.54027397 -9.43359375 6.25 C-8.50141891 0.3855583 -5.35873993 -0.32507062 0 0 Z " fill="#161616" transform="translate(138.125,295.69140625)"/>
<path d="M0 0 C0.66 0 1.32 0 2 0 C-4.97156845 23.62994781 -25.88681513 45.56126057 -47.22167969 57.21337891 C-49.52648468 58.41112499 -51.84626645 59.56273373 -54.1875 60.6875 C-55.2844519 61.21512939 -55.2844519 61.21512939 -56.40356445 61.75341797 C-61.6171318 64.12762273 -61.6171318 64.12762273 -65 63 C-63.97261719 62.50371094 -62.94523438 62.00742187 -61.88671875 61.49609375 C-33.47946384 47.63285824 -13.21190695 28.85877286 0 0 Z " fill="#1E1E1E" transform="translate(270,209)"/>
<path d="M0 0 C1.65 0 3.3 0 5 0 C5.66 1.65 6.32 3.3 7 5 C6.67 5.33 6.34 5.66 6 6 C5.71676638 7.38632475 5.48652998 8.78360171 5.28125 10.18359375 C5.08982422 11.45106445 5.08982422 11.45106445 4.89453125 12.74414062 C4.76433594 13.63294922 4.63414062 14.52175781 4.5 15.4375 C4.24265918 17.18665321 3.98238048 18.93537746 3.71875 20.68359375 C3.60466797 21.46275146 3.49058594 22.24190918 3.37304688 23.04467773 C3 25 3 25 2 27 C1.34 27 0.68 27 0 27 C-2.57409438 23.13885843 -2.29601945 19.08888664 -2.25 14.625 C-2.26160156 13.51125 -2.26160156 13.51125 -2.2734375 12.375 C-2.25750437 7.865925 -1.6981287 4.24532175 0 0 Z " fill="#0E0E0E" transform="translate(276,163)"/>
<path d="M0 0 C1.65 0 3.3 0 5 0 C6.125 2.1875 6.125 2.1875 7 5 C6.33756559 6.66835334 5.66978659 8.33458469 5 10 C4.34232852 12.91810479 3.8598473 15.86136313 3.375 18.8125 C3.2409375 19.60076172 3.106875 20.38902344 2.96875 21.20117188 C2.6408771 23.13328006 2.31975763 25.0665322 2 27 C1.34 27 0.68 27 0 27 C-2.57409438 23.13885843 -2.29601945 19.08888664 -2.25 14.625 C-2.26160156 13.51125 -2.26160156 13.51125 -2.2734375 12.375 C-2.25750437 7.865925 -1.6981287 4.24532175 0 0 Z " fill="#090909" transform="translate(115,163)"/>
<path d="M0 0 C0.33 0 0.66 0 1 0 C1.268125 1.175625 1.53625 2.35125 1.8125 3.5625 C2.52706696 6.48245707 3.35895096 8.78693095 4.625 11.5625 C6.14811257 15.37028143 6.46877562 17.93727792 6 22 C4.75 24 4.75 24 3 25 C0.9375 25.0625 0.9375 25.0625 -1 24 C-2.25 20.9375 -2.25 20.9375 -3 18 C-3.33 18 -3.66 18 -4 18 C-4.16682272 13.07872966 -4.24828052 9.49656104 -2 5 C-1.34 5 -0.68 5 0 5 C0 3.35 0 1.7 0 0 Z " fill="#ECECEC" transform="translate(123,163)"/>
<path d="M0 0 C0.66 0.66 1.32 1.32 2 2 C1.625 5.625 1.625 5.625 1 9 C1.66 9.45375 2.32 9.9075 3 10.375 C3.66 10.91125 4.32 11.4475 5 12 C5 12.66 5 13.32 5 14 C1.17902761 13.46930939 -1.06171403 12.50298434 -4 10 C-4 11.32 -4 12.64 -4 14 C-3.34 14.33 -2.68 14.66 -2 15 C-2.33 15.33 -2.66 15.66 -3 16 C-4.65 16 -6.3 16 -8 16 C-8.33 11.71 -8.66 7.42 -9 3 C-9.66 3 -10.32 3 -11 3 C-11 2.34 -11 1.68 -11 1 C-7.31620978 -0.17881287 -3.84458427 -0.21358801 0 0 Z " fill="#1A1A1A" transform="translate(200,295)"/>
<path d="M0 0 C1.258125 0.12375 2.51625 0.2475 3.8125 0.375 C4.87404297 0.47941406 4.87404297 0.47941406 5.95703125 0.5859375 C8 1 8 1 11 3 C11.375 5.4375 11.375 5.4375 11 8 C9.5 9.8125 9.5 9.8125 8 11 C8.66 12.98 9.32 14.96 10 17 C8.125 16.8125 8.125 16.8125 6 16 C4.75 13.4375 4.75 13.4375 4 11 C3.01 12.485 3.01 12.485 2 14 C2.66 14.33 3.32 14.66 4 15 C2.35 15 0.7 15 -1 15 C-1 12.08366321 -0.77565949 9.27708189 -0.5 6.375 C-0.15009864 3.19354772 -0.15009864 3.19354772 0 0 Z " fill="#141414" transform="translate(192,26)"/>
<path d="M0 0 C1.50626953 0.39832031 1.50626953 0.39832031 3.04296875 0.8046875 C20.45270543 5.34048364 37.03085374 6.50504871 55 7 C55 7.33 55 7.66 55 8 C50.71 8 46.42 8 42 8 C42 8.66 42 9.32 42 10 C35.79977392 10.12326493 29.98849291 9.75965552 23.875 8.75 C22.65526489 8.55410278 22.65526489 8.55410278 21.41088867 8.35424805 C13.79092448 7.07247529 6.40966596 5.18191957 -1 3 C-0.67 2.01 -0.34 1.02 0 0 Z " fill="#2A2A2A" transform="translate(118,323)"/>
<path d="M0 0 C0.66 0 1.32 0 2 0 C3.85999285 1.9675587 5.53390198 4.05555598 7.24609375 6.15234375 C8.96005081 8.24798169 8.96005081 8.24798169 12 9 C11.1875 10.9375 11.1875 10.9375 10 13 C9.01 13.33 8.02 13.66 7 14 C6.67 12.68 6.34 11.36 6 10 C4.68 10.33 3.36 10.66 2 11 C2 11.99 2 12.98 2 14 C3.32 14.33 4.64 14.66 6 15 C5.1875 16.9375 5.1875 16.9375 4 19 C3.01 19.33 2.02 19.66 1 20 C0.608125 19.2575 0.21625 18.515 -0.1875 17.75 C-2.51361889 14.22071616 -5.21880145 11.89059927 -9 10 C-7.35 8.68 -5.7 7.36 -4 6 C-3.34 7.32 -2.68 8.64 -2 10 C1.12197478 8.6910428 1.12197478 8.6910428 3 6 C0.525 5.01 0.525 5.01 -2 4 C-1.34 2.68 -0.68 1.36 0 0 Z " fill="#202020" transform="translate(271,250)"/>
<path d="M0 0 C-0.5973693 7.16843163 -2.89504486 12.40928599 -7.4375 18 C-10 20 -10 20 -12.8125 20.3125 C-13.534375 20.209375 -14.25625 20.10625 -15 20 C-14.49459391 15.27706721 -12.49923937 12.58639646 -9.625 8.875 C-8.83351562 7.84117187 -8.04203125 6.80734375 -7.2265625 5.7421875 C-2.56410256 0 -2.56410256 0 0 0 Z " fill="#0C0C0C" transform="translate(213,149)"/>
<path d="M0 0 C0.66 0 1.32 0 2 0 C2.66 1.32 3.32 2.64 4 4 C2.68 5.32 1.36 6.64 0 8 C1.32 8.66 2.64 9.32 4 10 C4.99 8.68 5.98 7.36 7 6 C8.32 7.65 9.64 9.3 11 11 C9.3603125 11.86625 9.3603125 11.86625 7.6875 12.75 C4.64541668 14.46384976 3.03546398 16.15035042 1 19 C0.01 19 -0.98 19 -2 19 C-2.66 18.01 -3.32 17.02 -4 16 C-2.68 15.34 -1.36 14.68 0 14 C-0.33 12.68 -0.66 11.36 -1 10 C-1.99 10.33 -2.98 10.66 -4 11 C-4.33 11.99 -4.66 12.98 -5 14 C-6.9375 13.1875 -6.9375 13.1875 -9 12 C-9.33 11.01 -9.66 10.02 -10 9 C-9.2575 8.566875 -8.515 8.13375 -7.75 7.6875 C-2.70919207 4.8295172 -2.70919207 4.8295172 0 0 Z " fill="#1F1F1F" transform="translate(273,67)"/>
<path d="M0 0 C-18.83949001 9.88860109 -44.65630871 8.94886209 -65 5 C-64.34 4.34 -63.68 3.68 -63 3 C-61.06762695 3.0168457 -61.06762695 3.0168457 -58.67578125 3.36328125 C-40.83876818 5.53087376 -22.41991519 4.86587849 -5.2421875 -0.51171875 C-3 -1 -3 -1 0 0 Z " fill="#363636" transform="translate(206,273)"/>
<path d="M0 0 C3.43595166 1.52708963 6.11912454 3.59927045 9 6 C8.25 10.75 8.25 10.75 6 13 C3.0574037 12.69347955 0.65457692 12.32728846 -2 11 C-2 12.65 -2 14.3 -2 16 C-3.32 15.34 -4.64 14.68 -6 14 C-6 10.3727374 -5.07114216 9.34764651 -3 6.4375 C-0.68341341 3.49058315 -0.68341341 3.49058315 0 0 Z " fill="#1C1C1C" transform="translate(249,48)"/>
<path d="M0 0 C0.5775 0.7425 1.155 1.485 1.75 2.25 C4.59626291 5.72876577 7.25497183 8.50331456 11 11 C9.68 11.99 8.36 12.98 7 14 C5.68 12.68 4.36 11.36 3 10 C2.34 11.32 1.68 12.64 1 14 C2.32 14.66 3.64 15.32 5 16 C4.1875 17.9375 4.1875 17.9375 3 20 C2.01 20.33 1.02 20.66 0 21 C-0.391875 20.2575 -0.78375 19.515 -1.1875 18.75 C-3.1336351 15.7972433 -5.24556322 14.17455536 -8 12 C-8.33 11.01 -8.66 10.02 -9 9 C-7.68 8.34 -6.36 7.68 -5 7 C-4.34 8.32 -3.68 9.64 -3 11 C-1.68 10.34 -0.36 9.68 1 9 C0.67 8.01 0.34 7.02 0 6 C-0.99 5.67 -1.98 5.34 -3 5 C-1.125 1.125 -1.125 1.125 0 0 Z " fill="#1E1E1E" transform="translate(56,67)"/>
<path d="M0 0 C2 1.375 2 1.375 4 3 C4 3.66 4 4.32 4 5 C2.02 5.99 2.02 5.99 0 7 C0.66 8.32 1.32 9.64 2 11 C3.98491642 10.73323796 3.98491642 10.73323796 6 10 C6.33 9.01 6.66 8.02 7 7 C7.99 8.32 8.98 9.64 10 11 C9.15115234 11.70576172 9.15115234 11.70576172 8.28515625 12.42578125 C7.55167969 13.04839844 6.81820312 13.67101562 6.0625 14.3125 C5.33160156 14.92738281 4.60070312 15.54226563 3.84765625 16.17578125 C1.76179634 17.95975519 1.76179634 17.95975519 1 21 C-0.9375 20.1875 -0.9375 20.1875 -3 19 C-3.33 18.01 -3.66 17.02 -4 16 C-2.68 15.34 -1.36 14.68 0 14 C-0.66 12.68 -1.32 11.36 -2 10 C-2.433125 10.495 -2.86625 10.99 -3.3125 11.5 C-5 13 -5 13 -8 13 C-8.66 12.01 -9.32 11.02 -10 10 C-9.2575 9.5875 -8.515 9.175 -7.75 8.75 C-3.9228029 6.31451093 -1.45115051 4.35345153 0 0 Z " fill="#0D0D0D" transform="translate(57,249)"/>
<path d="M0 0 C0.66 0 1.32 0 2 0 C5.11861229 3.95823868 5.38081364 7.04942264 5 12 C4.67 12.33 4.34 12.66 4 13 C1.66055264 12.71269945 -0.6739143 12.38063221 -3 12 C-3.33 11.01 -3.66 10.02 -4 9 C-4.99 9.495 -4.99 9.495 -6 10 C-6.33 10.99 -6.66 11.98 -7 13 C-7.66 13 -8.32 13 -9 13 C-11 10 -11 10 -11 7 C-3.57142857 3.71428571 -3.57142857 3.71428571 0 3 C0 2.01 0 1.02 0 0 Z " fill="#282828" transform="translate(41,227)"/>
<path d="M0 0 C2.375 0.75 2.375 0.75 3.375 1.75 C3.51615161 4.42058851 3.41747107 7.07432238 3.375 9.75 C4.695 10.41 6.015 11.07 7.375 11.75 C6.055 13.07 4.735 14.39 3.375 15.75 C3.375 15.09 3.375 14.43 3.375 13.75 C2.694375 13.481875 2.01375 13.21375 1.3125 12.9375 C-2.02210809 11.58946694 -5.32243237 10.17463702 -8.625 8.75 C-4.34840426 -0.41413374 -4.34840426 -0.41413374 0 0 Z " fill="#1E1E1E" transform="translate(37.625,94.25)"/>
<path d="M0 0 C2 2 2 2 2.3125 4.375 C1.94914998 7.42714016 1.01544839 8.73262056 -1 11 C-0.01 11.33 0.98 11.66 2 12 C1.1875 13.9375 1.1875 13.9375 0 16 C-0.99 16.33 -1.98 16.66 -3 17 C-3.71614583 15.27473958 -4.43229167 13.54947917 -5.1484375 11.82421875 C-6.06806692 9.73466068 -6.06806692 9.73466068 -8 7 C-8.99 6.67 -9.98 6.34 -11 6 C-11 5.34 -11 4.68 -11 4 C-7.35339039 1.11663426 -4.73193444 -0.78865574 0 0 Z " fill="#171717" transform="translate(252,272)"/>
<path d="M0 0 C1.64826111 2.96687001 2.44271087 5.65626525 3 9 C4.65 7.35 6.3 5.7 8 4 C7.48255634 9.30379752 6.03789974 12.6963087 3 17 C0.375 18.0625 0.375 18.0625 -2 18 C-4 16 -4 16 -4.265625 14.01171875 C-4.22833229 8.46442815 -4.11788185 4.11788185 0 0 Z " fill="#0F0F0F" transform="translate(73,168)"/>
<path d="M0 0 C-0.33 3.3 -0.66 6.6 -1 10 C-1.99 10 -2.98 10 -4 10 C-6.20142332 12.4390706 -6.20142332 12.4390706 -8 15 C-8.66 14.67 -9.32 14.34 -10 14 C-10 11.03 -10 8.06 -10 5 C-10.99 5.495 -10.99 5.495 -12 6 C-9.63080135 -0.92534991 -6.93648635 -1.30877101 0 0 Z " fill="#121212" transform="translate(83,164)"/>
<path d="M0 0 C0 1.98 0 3.96 0 6 C-0.66 6 -1.32 6 -2 6 C-2.66 5.01 -3.32 4.02 -4 3 C-5.32 3 -6.64 3 -8 3 C-9.36952673 5.73905345 -9.12621361 7.97087332 -9 11 C-8.67 11.66 -8.34 12.32 -8 13 C-5.47266765 13.65555119 -5.47266765 13.65555119 -3 14 C-3.33 12.02 -3.66 10.04 -4 8 C-2.02 8 -0.04 8 2 8 C2 8.66 2 9.32 2 10 C1.34 10 0.68 10 0 10 C0 11.65 0 13.3 0 15 C-7.98458998 16.56962025 -7.98458998 16.56962025 -11.5625 14.5625 C-13.57047769 10.9830615 -13.92785672 8.00702724 -13 4 C-9.22860762 -0.71424048 -5.60135938 -0.37975318 0 0 Z " fill="#1D1D1D" transform="translate(173,298)"/>
<path d="M0 0 C0 5.61 0 11.22 0 17 C-1.98 16.34 -3.96 15.68 -6 15 C-5.34 13.35 -4.68 11.7 -4 10 C-5.65 9.67 -7.3 9.34 -9 9 C-9 10.32 -9 11.64 -9 13 C-10.32 12.67 -11.64 12.34 -13 12 C-13 11.34 -13 10.68 -13 10 C-11.35546875 8.37890625 -11.35546875 8.37890625 -9.1875 6.5625 C-6.17536735 4.02660668 -6.17536735 4.02660668 -3.36328125 1.27734375 C-2 0 -2 0 0 0 Z " fill="#282828" transform="translate(229,36)"/>
<path d="M0 0 C3.49237774 1.74618887 5.0490822 2.84473651 7.625 5.5625 C10.04521959 8.14015389 10.04521959 8.14015389 13 10 C13 10.66 13 11.32 13 12 C11.35 12.66 9.7 13.32 8 14 C7.67 13.01 7.34 12.02 7 11 C5.68 11 4.36 11 3 11 C3.33 12.65 3.66 14.3 4 16 C2.68 16.33 1.36 16.66 0 17 C0 11.39 0 5.78 0 0 Z " fill="#393939" transform="translate(221,286)"/>
<path d="M0 0 C0 1.65 0 3.3 0 5 C-0.66 5 -1.32 5 -2 5 C-2.33 4.34 -2.66 3.68 -3 3 C-4.66611905 2.957279 -6.33382885 2.95936168 -8 3 C-9.39681568 4.16983444 -9.39681568 4.16983444 -9.125 7.4375 C-9.2526281 10.84105584 -9.2526281 10.84105584 -8 13 C-5.47266765 13.65555119 -5.47266765 13.65555119 -3 14 C-3.33 12.02 -3.66 10.04 -4 8 C-2.35 8 -0.7 8 1 8 C0.67 10.31 0.34 12.62 0 15 C-7.98458998 16.56962025 -7.98458998 16.56962025 -11.5625 14.5625 C-13.57737916 10.97075889 -13.78335669 8.02397962 -13 4 C-9.99715745 -1.22233487 -5.37428967 -0.4134069 0 0 Z " fill="#090909" transform="translate(173,23)"/>
<path d="M0 0 C3.15420342 1.414753 5.85804622 3.2767603 8.66894531 5.27514648 C20.9550626 13.91310601 35.18601248 21.0439979 50 24 C50 24.33 50 24.66 50 25 C32.56451402 24.72324625 13.81426952 13.86149561 1.22265625 2.3125 C0 1 0 1 0 0 Z " fill="#292929" transform="translate(93,252)"/>
<path d="M0 0 C0.33 0 0.66 0 1 0 C1 10.23 1 20.46 1 31 C0.34 31 -0.32 31 -1 31 C-1.33 32.32 -1.66 33.64 -2 35 C-2.04937279 30.33692986 -2.08570627 25.67401127 -2.10986328 21.01074219 C-2.11993188 19.42380117 -2.13358767 17.83687875 -2.15087891 16.25 C-2.17509001 13.97130753 -2.18647422 11.69285994 -2.1953125 9.4140625 C-2.20563507 8.70255035 -2.21595764 7.99103821 -2.22659302 7.25796509 C-2.22699422 5.50368335 -2.12202209 3.75003291 -2 2 C-1.34 1.34 -0.68 0.68 0 0 Z " fill="#333333" transform="translate(3,147)"/>
<path d="M0 0 C10.76812891 -0.46592865 21.41194892 1.17504088 32 3 C31.34 3.33 30.68 3.66 30 4 C30 4.66 30 5.32 30 6 C29.1735498 5.86287598 28.34709961 5.72575195 27.49560547 5.58447266 C18.34758268 4.16031357 9.38404672 3.59307372 0.125 3.375 C-1.25653091 3.33666926 -2.63804181 3.29760983 -4.01953125 3.2578125 C-7.34623042 3.16475798 -10.67294084 3.07892541 -14 3 C-14 2.67 -14 2.34 -14 2 C-9.38 1.67 -4.76 1.34 0 1 C0 0.67 0 0.34 0 0 Z " fill="#2D2D2D" transform="translate(170,1)"/>
<path d="M0 0 C0 0.66 0 1.32 0 2 C-11.73158438 3.99081432 -23.12216874 4.21705681 -35 4 C-35 3.34 -35 2.68 -35 2 C-30.85462295 1.66082869 -26.70863782 1.32973047 -22.5625 1 C-21.39783203 0.90460938 -20.23316406 0.80921875 -19.03320312 0.7109375 C-12.66448898 0.20861638 -6.38824697 -0.1093176 0 0 Z " fill="#0A0A0A" transform="translate(195,329)"/>
<path d="M0 0 C1.32 0.33 2.64 0.66 4 1 C4.8125 3.125 4.8125 3.125 5 6 C3.55576519 8.30107561 1.89127865 10.01646386 0 12 C-1.32 11.67 -2.64 11.34 -4 11 C-4.8125 8.875 -4.8125 8.875 -5 6 C-3.55576519 3.69892439 -1.89127865 1.98353614 0 0 Z " fill="#F2F2F2" transform="translate(81,274)"/>
<path d="M0 0 C7.55207698 7.28615878 14.87717699 16.24196162 19 26 C19 26.99 19 27.98 19 29 C18.34 29 17.68 29 17 29 C15.56224739 26.77497905 14.23795397 24.55379631 12.9375 22.25 C8.77571095 15.07097829 4.13360118 8.51712491 -1 2 C-0.67 1.34 -0.34 0.68 0 0 Z " fill="#141414" transform="translate(293,60)"/>
<path d="M0 0 C1.875 0.75 1.875 0.75 2.875 1.75 C3.23397436 8.21153846 3.23397436 8.21153846 0.875 11.75 C-1.75 11.9375 -1.75 11.9375 -4.125 11.75 C-5.64991998 8.70016004 -5.36062548 6.1076631 -5.125 2.75 C-3.54793711 0.22669937 -2.98624225 -0.35132262 0 0 Z " fill="#F5F5F5" transform="translate(137.125,297.25)"/>
<path d="M0 0 C1.44096586 0.42594588 2.87768712 0.86626633 4.3125 1.3125 C5.11300781 1.55613281 5.91351563 1.79976563 6.73828125 2.05078125 C9.09964573 3.04182023 10.33879993 4.08074943 12 6 C11.67 6.99 11.34 7.98 11 9 C10.34 9 9.68 9 9 9 C9 7.68 9 6.36 9 5 C8.01 5 7.02 5 6 5 C5.1558062 8.97977076 4.55312735 12.97007218 4 17 C1.5625 16.625 1.5625 16.625 -1 16 C-1.33 15.34 -1.66 14.68 -2 14 C-1.34 14 -0.68 14 0 14 C0.20496094 13.37351562 0.40992187 12.74703125 0.62109375 12.1015625 C0.89050781 11.28429687 1.15992187 10.46703125 1.4375 9.625 C1.70433594 8.81289063 1.97117187 8.00078125 2.24609375 7.1640625 C3 5 3 5 4 3 C2.68 3 1.36 3 0 3 C0 3.66 0 4.32 0 5 C-0.66 5 -1.32 5 -2 5 C-1.34 3.35 -0.68 1.7 0 0 Z " fill="#242424" transform="translate(104,285)"/>
<path d="M0 0 C0.66 0 1.32 0 2 0 C2.433125 1.093125 2.86625 2.18625 3.3125 3.3125 C4.50042244 6.06758772 5.48894698 8.22133745 8 10 C8.99 10 9.98 10 11 10 C10.49396008 12.16874252 10.00016187 13.99967627 9 16 C8.34 16 7.68 16 7 16 C7 15.01 7 14.02 7 13 C2.71 12.67 -1.58 12.34 -6 12 C-5.34 10.35 -4.68 8.7 -4 7 C-3.34 7 -2.68 7 -2 7 C-2 7.66 -2 8.32 -2 9 C-0.35 9 1.3 9 3 9 C1.6910428 5.87802522 1.6910428 5.87802522 -1 4 C-0.67 2.68 -0.34 1.36 0 0 Z " fill="#1B1B1B" transform="translate(288,226)"/>
<path d="M0 0 C3.09505655 0.10316855 4.0736247 1.07163484 6.3125 3.25 C8 6 8 6 7.75 8.8125 C7.5025 9.534375 7.255 10.25625 7 11 C3.625 10.6875 3.625 10.6875 0 10 C-2.14915785 6.77626323 -2.38286803 5.73296326 -2 2 C-1.34 1.34 -0.68 0.68 0 0 Z " fill="#F3F3F3" transform="translate(78,51)"/>
<path d="M0 0 C3.25696479 0.41755959 4.63443291 0.63443291 7 3 C7.25 6.5 7.25 6.5 7 10 C6.34 10.66 5.68 11.32 5 12 C2.06546739 11.63318342 1.13562754 11.13562754 -1 9 C-1.32752234 6.28545044 -1.1308425 3.74769241 -1 1 C-0.67 0.67 -0.34 0.34 0 0 Z " fill="#F6F6F6" transform="translate(133,28)"/>
<path d="M0 0 C0.33 1.65 0.66 3.3 1 5 C-1.475 4.01 -1.475 4.01 -4 3 C-3.38144369 4.6274637 -2.75492695 6.25190356 -2.125 7.875 C-1.77695313 8.77992187 -1.42890625 9.68484375 -1.0703125 10.6171875 C-0.11469105 13.12217007 -0.11469105 13.12217007 2 15 C1.01 15.66 0.02 16.32 -1 17 C-1.99 16.67 -2.98 16.34 -4 16 C-4.94921875 13.49609375 -4.94921875 13.49609375 -5.6875 10.4375 C-6.06455078 8.91962891 -6.06455078 8.91962891 -6.44921875 7.37109375 C-6.63097656 6.58863281 -6.81273438 5.80617188 -7 5 C-9.33075929 5.95865509 -9.33075929 5.95865509 -11 9 C-11.33 7.68 -11.66 6.36 -12 5 C-10.37750059 4.16180842 -8.75191503 3.3295884 -7.125 2.5 C-6.22007813 2.0359375 -5.31515625 1.571875 -4.3828125 1.09375 C-2 0 -2 0 0 0 Z " fill="#161616" transform="translate(111,33)"/>
<path d="M0 0 C3 1 3 1 4.1875 3.0625 C4.455625 3.701875 4.72375 4.34125 5 5 C3.68 5 2.36 5 1 5 C0.67 6.32 0.34 7.64 0 9 C1.65 9.33 3.3 9.66 5 10 C5 9.34 5 8.68 5 8 C5.99 8.33 6.98 8.66 8 9 C8 9.99 8 10.98 8 12 C1.565 12.495 1.565 12.495 -5 13 C-5.33 13.99 -5.66 14.98 -6 16 C-6.66 14.35 -7.32 12.7 -8 11 C-7.38640625 10.76539062 -6.7728125 10.53078125 -6.140625 10.2890625 C-3.4369579 8.6609418 -2.90946466 7.27366164 -1.75 4.375 C-1.41484375 3.55773437 -1.0796875 2.74046875 -0.734375 1.8984375 C-0.49203125 1.27195312 -0.2496875 0.64546875 0 0 Z " fill="#202020" transform="translate(293,92)"/>
<path d="M0 0 C0 0.33 0 0.66 0 1 C-0.62342285 1.01981934 -1.2468457 1.03963867 -1.88916016 1.06005859 C-18.09233102 1.58463758 -18.09233102 1.58463758 -34.16015625 3.59765625 C-37.14249692 4.0201887 -39.99193982 4.06704443 -43 4 C-41.03288579 1.12801325 -39.72037143 0.945869 -36.2265625 0.26953125 C-34.69436545 0.1013367 -33.16026628 -0.05011493 -31.625 -0.1875 C-30.82006104 -0.26718018 -30.01512207 -0.34686035 -29.18579102 -0.42895508 C-19.36305336 -1.33826886 -9.78052589 -1.326173 0 0 Z " fill="#080808" transform="translate(179,2)"/>
<path d="M0 0 C1.15371094 0.04833984 2.30742187 0.09667969 3.49609375 0.14648438 C5.28080078 0.2305957 5.28080078 0.2305957 7.1015625 0.31640625 C8.92107422 0.3947168 8.92107422 0.3947168 10.77734375 0.47460938 C13.76070763 0.60381017 16.74369623 0.73875666 19.7265625 0.87890625 C19.7265625 1.20890625 19.7265625 1.53890625 19.7265625 1.87890625 C18.80713867 1.90078003 18.80713867 1.90078003 17.86914062 1.9230957 C4.18866559 2.2850604 -8.78341201 3.19065459 -22.078125 6.59765625 C-23.16480469 6.736875 -23.16480469 6.736875 -24.2734375 6.87890625 C-24.9334375 6.21890625 -25.5934375 5.55890625 -26.2734375 4.87890625 C-24.06633767 4.22887 -21.85769858 3.5840588 -19.6484375 2.94140625 C-18.41867188 2.58175781 -17.18890625 2.22210938 -15.921875 1.8515625 C-10.48431687 0.40193512 -5.62659994 -0.2506901 0 0 Z " fill="#595959" transform="translate(156.2734375,54.12109375)"/>
<path d="M0 0 C0.99 0.33 1.98 0.66 3 1 C1.46362677 9.69406496 -0.24842651 18.34722694 -2 27 C-2.99 27.33 -3.98 27.66 -5 28 C-4.38277416 18.43299944 -2.1798659 9.30752043 0 0 Z " fill="#1B1B1B" transform="translate(7,120)"/>
<path d="M0 0 C0.33 0.66 0.66 1.32 1 2 C1.66 2.33 2.32 2.66 3 3 C0.41874331 11.17397951 -2.77011881 19.06640834 -6 27 C-6.99 27 -7.98 27 -9 27 C-6 18 -3 9 0 0 Z " fill="#1A1A1A" transform="translate(324,210)"/>
<path d="M0 0 C2.5625 0.1875 2.5625 0.1875 4.5625 2.1875 C4.70747985 4.76814129 4.74927545 7.23693884 4.6875 9.8125 C4.67847656 10.51890625 4.66945312 11.2253125 4.66015625 11.953125 C4.63657603 13.69806098 4.60070461 15.44282295 4.5625 17.1875 C3.5725 16.8575 2.5825 16.5275 1.5625 16.1875 C-0.6387966 11.43733365 -0.6140235 7.30668146 -0.4375 2.1875 C-1.4275 1.8575 -2.4175 1.5275 -3.4375 1.1875 C-2.4375 0.1875 -2.4375 0.1875 0 0 Z " fill="#272727" transform="translate(154.4375,163.8125)"/>
<path d="M0 0 C2.97 0.495 2.97 0.495 6 1 C5.7978938 2.60780009 5.56217135 4.21139655 5.3125 5.8125 C5.18488281 6.70582031 5.05726562 7.59914062 4.92578125 8.51953125 C3.70663709 11.78601454 2.0654325 12.50937774 -1 14 C-1.02694851 12.04174127 -1.04637218 10.08337774 -1.0625 8.125 C-1.07410156 7.03445312 -1.08570312 5.94390625 -1.09765625 4.8203125 C-1 2 -1 2 0 0 Z " fill="#0A0A0A" transform="translate(85,158)"/>
<path d="M0 0 C0.66 0 1.32 0 2 0 C0.53065667 4.98030056 -1.58287119 9.25838591 -4.125 13.75 C-4.5180835 14.44867188 -4.91116699 15.14734375 -5.31616211 15.8671875 C-8.69022201 21.72736124 -12.52002174 26.92187751 -17 32 C-17.33 31.34 -17.66 30.68 -18 30 C-17.28714844 29.00742188 -16.57429687 28.01484375 -15.83984375 26.9921875 C-9.68836023 18.30723436 -4.43409502 9.68539526 0 0 Z " fill="#2A2A2A" transform="translate(270,209)"/>
<path d="M0 0 C1.8874394 3.27156162 2.60106002 6.24996419 3 10 C2.67 10.99 2.34 11.98 2 13 C0.15234375 13.73046875 0.15234375 13.73046875 -2.0625 14.1875 C-2.79597656 14.34605469 -3.52945313 14.50460938 -4.28515625 14.66796875 C-4.85105469 14.77753906 -5.41695312 14.88710937 -6 15 C-4.36041242 9.76727367 -2.61047965 4.84803364 0 0 Z " fill="#E8E8E8" transform="translate(214,150)"/>
<path d="M0 0 C1.32 1.32 2.64 2.64 4 4 C3.43410156 4.47050781 2.86820313 4.94101562 2.28515625 5.42578125 C1.55167969 6.04839844 0.81820312 6.67101562 0.0625 7.3125 C-1.03384766 8.23482422 -1.03384766 8.23482422 -2.15234375 9.17578125 C-4.23820366 10.95975519 -4.23820366 10.95975519 -5 14 C-6.9375 13.1875 -6.9375 13.1875 -9 12 C-9.33 11.01 -9.66 10.02 -10 9 C-5.25 6 -5.25 6 -3 6 C-2.67 5.01 -2.34 4.02 -2 3 C-1.34 3 -0.68 3 0 3 C0 2.01 0 1.02 0 0 Z " fill="#1F1F1F" transform="translate(63,256)"/>
<path d="M0 0 C2.88437779 1.29299694 4.87219421 2.65941363 7 5 C6.1875 7.4375 6.1875 7.4375 5 10 C4.01 10.33 3.02 10.66 2 11 C0 10 0 10 -1 8 C-1.99 8.495 -1.99 8.495 -3 9 C-2.5359375 7.88625 -2.5359375 7.88625 -2.0625 6.75 C-1.1905075 4.49307824 -0.52332993 2.3549847 0 0 Z " fill="#262626" transform="translate(249,48)"/>
<path d="M0 0 C2.08304538 -0.05418326 4.16649768 -0.09287551 6.25 -0.125 C7.99023438 -0.15980469 7.99023438 -0.15980469 9.765625 -0.1953125 C12.82786046 -0.0103949 14.44202751 0.39176977 17 2 C13.63752605 3.98986985 10.74771002 4.39728463 6.875 4.6875 C5.82054687 4.77386719 4.76609375 4.86023438 3.6796875 4.94921875 C1 5 1 5 -1 4 C-0.67 2.68 -0.34 1.36 0 0 Z " fill="#646464" transform="translate(184,190)"/>
<path d="M0 0 C3.375 -0.125 3.375 -0.125 7 0 C7.66 0.66 8.32 1.32 9 2 C8.67028521 5.29714793 8.3773161 6.6226839 6 9 C4.68 8.67 3.36 8.34 2 8 C1.34 5.36 0.68 2.72 0 0 Z " fill="#212121" transform="translate(193,295)"/>
<path d="M0 0 C0.598125 0.763125 1.19625 1.52625 1.8125 2.3125 C5.52646085 7.0523057 5.52646085 7.0523057 11 9 C10.1875 10.9375 10.1875 10.9375 9 13 C8.01 13.33 7.02 13.66 6 14 C5.608125 13.2575 5.21625 12.515 4.8125 11.75 C2.48638111 8.22071616 -0.21880145 5.89059927 -4 4 C-2.68 2.68 -1.36 1.36 0 0 Z " fill="#151515" transform="translate(266,256)"/>
<path d="M0 0 C1.65 1.65 3.3 3.3 5 5 C3.906875 5.5775 2.81375 6.155 1.6875 6.75 C-1.35458332 8.46384976 -2.96453602 10.15035042 -5 13 C-5.99 13 -6.98 13 -8 13 C-8.66 12.01 -9.32 11.02 -10 10 C-8.02 9.34 -6.04 8.68 -4 8 C-4 7.34 -4 6.68 -4 6 C-3.34 6 -2.68 6 -2 6 C-1.34 4.02 -0.68 2.04 0 0 Z " fill="#131313" transform="translate(279,73)"/>
<path d="M0 0 C0.66 0 1.32 0 2 0 C5.11861229 3.95823868 5.38081364 7.04942264 5 12 C4 13 4 13 1.4375 13.0625 C0.633125 13.041875 -0.17125 13.02125 -1 13 C-1.33 12.34 -1.66 11.68 -2 11 C-1.360625 10.7525 -0.72125 10.505 -0.0625 10.25 C2.18741541 9.18437567 2.18741541 9.18437567 2.75 6.875 C2.8325 6.25625 2.915 5.6375 3 5 C2.401875 5.350625 1.80375 5.70125 1.1875 6.0625 C-1 7 -1 7 -4 6 C-3.34 5.01 -2.68 4.02 -2 3 C-1.34 3 -0.68 3 0 3 C0 2.01 0 1.02 0 0 Z " fill="#1E1E1E" transform="translate(41,227)"/>
<path d="M0 0 C0.99 0.33 1.98 0.66 3 1 C2.25556641 1.87398438 2.25556641 1.87398438 1.49609375 2.765625 C-3.21704879 8.45359209 -7.03655081 14.2302822 -10.5546875 20.7265625 C-11.03164062 21.47679688 -11.50859375 22.22703125 -12 23 C-12.66 23 -13.32 23 -14 23 C-12.64673911 18.15752051 -10.48087419 14.41074848 -7.5625 10.375 C-7.16740234 9.81554687 -6.77230469 9.25609375 -6.36523438 8.6796875 C-4.28986456 5.75137867 -2.16903827 2.85950383 0 0 Z " fill="#2A2A2A" transform="translate(80,93)"/>
<path d="M0 0 C2.4750171 1.11431765 4.67883419 2.58150978 7 4 C7 4.66 7 5.32 7 6 C8.98 6 10.96 6 13 6 C11.515 8.475 11.515 8.475 10 11 C9.67 10.34 9.34 9.68 9 9 C7.35767228 8.27544365 5.68375165 7.62225605 4 7 C2.7264543 6.46474166 1.45565616 5.9229052 0.1875 5.375 C-1.3903125 4.694375 -1.3903125 4.694375 -3 4 C-2.67 3.01 -2.34 2.02 -2 1 C-1.34 0.67 -0.68 0.34 0 0 Z " fill="#131313" transform="translate(32,99)"/>
<path d="M0 0 C0.5775 0.7425 1.155 1.485 1.75 2.25 C4.59626291 5.72876577 7.25497183 8.50331456 11 11 C9.68 11.99 8.36 12.98 7 14 C6.52949219 13.43410156 6.05898438 12.86820313 5.57421875 12.28515625 C4.95160156 11.55167969 4.32898437 10.81820312 3.6875 10.0625 C3.07261719 9.33160156 2.45773438 8.60070312 1.82421875 7.84765625 C0.04024481 5.76179634 0.04024481 5.76179634 -3 5 C-1.125 1.125 -1.125 1.125 0 0 Z " fill="#0A0A0A" transform="translate(56,67)"/>
<path d="M0 0 C0.99 0.33 1.98 0.66 3 1 C2.95875 2.19625 2.9175 3.3925 2.875 4.625 C2.86148292 8.42329953 3.57990247 11.44975618 5 15 C3.1875 14.9375 3.1875 14.9375 1 14 C-2.21314952 8.6447508 -2.21314952 8.6447508 -1.73828125 4.98046875 C-1.1875 3.0625 -1.1875 3.0625 0 0 Z " fill="#1F1F1F" transform="translate(197,28)"/>
<path d="M0 0 C9.24 0 18.48 0 28 0 C28 0.33 28 0.66 28 1 C23.71 1 19.42 1 15 1 C15 1.66 15 2.32 15 3 C9.5610835 3.21755666 5.12919186 3.10428384 0 1 C0 0.67 0 0.34 0 0 Z " fill="#393939" transform="translate(145,330)"/>
<path d="M0 0 C4.12542568 0.6901558 7.8451293 1.94887848 11.75 3.4375 C13.47476563 4.08525391 13.47476563 4.08525391 15.234375 4.74609375 C18 6 18 6 19 8 C11.63927766 7.57534294 5.67862176 5.01651083 -1 2 C-0.67 1.34 -0.34 0.68 0 0 Z " fill="#1A1A1A" transform="translate(100,317)"/>
<path d="M0 0 C1 3 1 3 -0.65234375 6.57421875 C-1.40387723 7.95092168 -2.1660567 9.32185409 -2.9375 10.6875 C-3.51661133 11.7403418 -3.51661133 11.7403418 -4.10742188 12.81445312 C-5.06261773 14.54795672 -6.03015386 16.27465009 -7 18 C-7.99 18 -8.98 18 -10 18 C-8.5216233 13.98832453 -6.60821705 10.42979591 -4.4375 6.75 C-3.81746094 5.69296875 -3.19742187 4.6359375 -2.55859375 3.546875 C-1 1 -1 1 0 0 Z " fill="#111111" transform="translate(316,236)"/>
<path d="M0 0 C6.38197767 0.48165869 6.38197767 0.48165869 8.9375 2.625 C10.37148358 5.83037505 10.20006114 8.53227365 10 12 C9.01 12.495 9.01 12.495 8 13 C7.731875 11.906875 7.46375 10.81375 7.1875 9.6875 C5.92891323 5.66943394 5.92891323 5.66943394 3 3 C2.01 2.67 1.02 2.34 0 2 C0 1.34 0 0.68 0 0 Z " fill="#141414" transform="translate(78,49)"/>
<path d="M0 0 C0.66 0 1.32 0 2 0 C2.84124316 2.24732102 3.67314832 4.49738785 4.5 6.75 C4.85771484 7.70132813 4.85771484 7.70132813 5.22265625 8.671875 C6.44801758 12.03286607 7 14.36871587 7 18 C6.34 18 5.68 18 5 18 C4.15875684 15.75267898 3.32685168 13.50261215 2.5 11.25 C2.26152344 10.61578125 2.02304688 9.9815625 1.77734375 9.328125 C0.55198242 5.96713393 0 3.63128413 0 0 Z " fill="#161616" transform="translate(8,212)"/>
<path d="M0 0 C0.66 0 1.32 0 2 0 C2.33 3.63 2.66 7.26 3 11 C2.34 11 1.68 11 1 11 C1 15.95 1 20.9 1 26 C0.67 26 0.34 26 0 26 C0 17.42 0 8.84 0 0 Z " fill="#3C3C3C" transform="translate(330,150)"/>
<path d="M0 0 C-0.33 0.66 -0.66 1.32 -1 2 C-3.33247815 2.62852934 -5.69291467 3.15535246 -8.0625 3.625 C-9.35285156 3.88539062 -10.64320312 4.14578125 -11.97265625 4.4140625 C-12.97167969 4.60742188 -13.97070312 4.80078125 -15 5 C-15.33 4.01 -15.66 3.02 -16 2 C-13.89829344 1.46932659 -11.79352402 0.95077143 -9.6875 0.4375 C-7.92986328 0.00244141 -7.92986328 0.00244141 -6.13671875 -0.44140625 C-3 -1 -3 -1 0 0 Z " fill="#232323" transform="translate(137,5)"/>
<path d="M0 0 C5.29012124 4.40843437 10.18808428 9.07559794 15 14 C14.34 14.66 13.68 15.32 13 16 C11.198683 14.28001336 9.40931537 12.54997709 7.625 10.8125 C7.11710937 10.32974609 6.60921875 9.84699219 6.0859375 9.34960938 C3.11654707 6.43882533 1.21251213 3.99544661 0 0 Z " fill="#383838" transform="translate(79,237)"/>
<path d="M0 0 C0.99 0 1.98 0 3 0 C4 3 4 3 3.00390625 5.48046875 C2.52824219 6.37378906 2.05257813 7.26710937 1.5625 8.1875 C1.08941406 9.08855469 0.61632812 9.98960937 0.12890625 10.91796875 C-0.24363281 11.60503906 -0.61617187 12.29210937 -1 13 C-1.33 13 -1.66 13 -2 13 C-1.85966889 11.02043559 -1.7125877 9.04134859 -1.5625 7.0625 C-1.48128906 5.96035156 -1.40007812 4.85820312 -1.31640625 3.72265625 C-1 1 -1 1 0 0 Z " fill="#E0E0E0" transform="translate(256,168)"/>
<path d="M0 0 C0.99 0.33 1.98 0.66 3 1 C3.48590022 8.28850325 3.48590022 8.28850325 1.25 11.5625 C-1 13 -1 13 -3.25 12.75 C-4.11625 12.37875 -4.11625 12.37875 -5 12 C-4.360625 11.505 -3.72125 11.01 -3.0625 10.5 C-0.18484731 7.01193613 -0.29769264 4.46538959 0 0 Z " fill="#0D0D0D" transform="translate(140,298)"/>
<path d="M0 0 C4.13980159 1.99777782 7.86794627 4.45605365 11.6875 7 C12.37650391 7.45117188 13.06550781 7.90234375 13.77539062 8.3671875 C18.88016615 11.76033229 18.88016615 11.76033229 20 14 C15.13650141 12.653073 11.74751812 10.62090268 7.75 7.5625 C6.71359375 6.78003906 5.6771875 5.99757813 4.609375 5.19140625 C2 3 2 3 0 0 Z " fill="#171717" transform="translate(93,252)"/>
<path d="M0 0 C0.66 0 1.32 0 2 0 C2.31563182 5.26053037 1.66590937 8.44573816 -1 13 C-1.33 13 -1.66 13 -2 13 C-2.05447047 11.58376784 -2.09300508 10.16691809 -2.125 8.75 C-2.14820313 7.96109375 -2.17140625 7.1721875 -2.1953125 6.359375 C-1.9828378 3.79268059 -1.28654105 2.2083933 0 0 Z " fill="#EBEBEB" transform="translate(292,167)"/>
<path d="M0 0 C1.65 0 3.3 0 5 0 C4.67 2.31 4.34 4.62 4 7 C-0.455 7.495 -0.455 7.495 -5 8 C-5 7.34 -5 6.68 -5 6 C-3.02 6 -1.04 6 1 6 C0.67 4.02 0.34 2.04 0 0 Z " fill="#222222" transform="translate(169,31)"/>
<path d="M0 0 C0.33 0.66 0.66 1.32 1 2 C-2.96 2.66 -6.92 3.32 -11 4 C-11 3.34 -11 2.68 -11 2 C-11.66 1.67 -12.32 1.34 -13 1 C-11.58622218 0.63447197 -10.16879424 0.28304505 -8.75 -0.0625 C-7.96109375 -0.25972656 -7.1721875 -0.45695312 -6.359375 -0.66015625 C-3.86185292 -1.01989867 -2.34449197 -0.9077126 0 0 Z " fill="#303030" transform="translate(206,327)"/>
<path d="M0 0 C2.86724686 0.57344937 3.8614515 0.8614515 6 3 C6.125 6.625 6.125 6.625 6 10 C5.01 10.33 4.02 10.66 3 11 C2.87625 9.9275 2.7525 8.855 2.625 7.75 C2.10356064 4.62136385 1.59911746 2.66519576 0 0 Z " fill="#0F0F0F" transform="translate(137,27)"/>
<path d="M0 0 C3 1 3 1 3.94921875 2.671875 C5.33170943 6.56333025 6.39357798 9.80183483 6 14 C5.34 14 4.68 14 4 14 C3.32739649 12.23141309 2.66211605 10.46003984 2 8.6875 C1.62875 7.70136719 1.2575 6.71523437 0.875 5.69921875 C0 3 0 3 0 0 Z " fill="#161616" transform="translate(319,105)"/>
<path d="M0 0 C0 1.65 0 3.3 0 5 C-3 6 -3 6 -6 5 C-6 6.32 -6 7.64 -6 9 C-7.32 8.67 -8.64 8.34 -10 8 C-10 7.34 -10 6.68 -10 6 C-3.25 0 -3.25 0 0 0 Z " fill="#525252" transform="translate(226,40)"/>
<path d="M0 0 C0.66 0 1.32 0 2 0 C3.03590199 5.05002222 3.10251672 9.87416389 3 15 C2.34 15 1.68 15 1 15 C-0.03590199 9.94997778 -0.10251672 5.12583611 0 0 Z " fill="#0E0E0E" transform="translate(2,178)"/>
<path d="M0 0 C1.90318884 2.85478326 2.4619099 4.41941308 3.125 7.6875 C3.29257812 8.49574219 3.46015625 9.30398437 3.6328125 10.13671875 C3.75398438 10.75160156 3.87515625 11.36648437 4 12 C3.34 12 2.68 12 2 12 C1.67 12.66 1.34 13.32 1 14 C0.01 9.71 -0.98 5.42 -2 1 C-1.34 0.67 -0.68 0.34 0 0 Z " fill="#282828" transform="translate(325,118)"/>
<path d="M0 0 C1.67110042 2.96178773 2.32682752 5.37071192 2.625 8.75 C2.69976562 9.54921875 2.77453125 10.3484375 2.8515625 11.171875 C2.90054688 11.77515625 2.94953125 12.3784375 3 13 C2.01 12.67 1.02 12.34 0 12 C-1.29449495 8.11651516 -1.13203312 5.09302664 -1 1 C-0.67 0.67 -0.34 0.34 0 0 Z " fill="#0A0A0A" transform="translate(156,168)"/>
<path d="M0 0 C-4.31369972 2.87579981 -7.80734761 4 -13 4 C-13 3.34 -13 2.68 -13 2 C-4.738041 -1.62870159 -4.738041 -1.62870159 0 0 Z " fill="#1A1A1A" transform="translate(122,9)"/>
<path d="M0 0 C1.43791516 0.14168137 2.8753237 0.28851043 4.3125 0.4375 C5.11300781 0.51871094 5.91351563 0.59992187 6.73828125 0.68359375 C9 1 9 1 12 2 C12 2.66 12 3.32 12 4 C10.3745692 3.85904936 8.74965949 3.71207913 7.125 3.5625 C6.22007812 3.48128906 5.31515625 3.40007813 4.3828125 3.31640625 C2 3 2 3 0 2 C0 1.34 0 0.68 0 0 Z " fill="#1D1D1D" transform="translate(200,5)"/>
<path d="M0 0 C0.99 0.33 1.98 0.66 3 1 C2.34 4.63 1.68 8.26 1 12 C0.01 11.67 -0.98 11.34 -2 11 C-1 3.57142857 -1 3.57142857 0 0 Z " fill="#303030" transform="translate(7,120)"/>
<path d="M0 0 C5.32697239 1.45281065 8.36402802 5.08111378 12 9 C11.34 9.66 10.68 10.32 10 11 C8.33035479 9.35718838 6.6643536 7.71067239 5 6.0625 C4.071875 5.14597656 3.14375 4.22945313 2.1875 3.28515625 C0 1 0 1 0 0 Z " fill="#272727" transform="translate(239,81)"/>
<path d="M0 0 C0.33 0 0.66 0 1 0 C0.9131724 2.12577907 0.8050049 4.25069581 0.6875 6.375 C0.62949219 7.55835938 0.57148438 8.74171875 0.51171875 9.9609375 C0.34285156 10.96382812 0.17398437 11.96671875 0 13 C-0.99 13.66 -1.98 14.32 -3 15 C-3.25 8.375 -3.25 8.375 -1 5 C-0.61500109 3.34450469 -0.27206865 1.6777567 0 0 Z " fill="#2C2C2C" transform="translate(332,176)"/>
<path d="M0 0 C-2.58926331 2.58926331 -4.02705279 2.37398043 -7.625 2.625 C-8.62789062 2.69976562 -9.63078125 2.77453125 -10.6640625 2.8515625 C-11.82035156 2.92503906 -11.82035156 2.92503906 -13 3 C-10.77118667 0.40088226 -9.34031527 -0.41925908 -5.9375 -0.75 C-2 -1 -2 -1 0 0 Z " fill="#101010" transform="translate(149,3)"/>
<path d="M0 0 C1.98 0.495 1.98 0.495 4 1 C4.33 2.32 4.66 3.64 5 5 C4.01 5.66 3.02 6.32 2 7 C0.4375 5.1875 0.4375 5.1875 -1 3 C-0.67 2.01 -0.34 1.02 0 0 Z " fill="#DFDFDF" transform="translate(247,274)"/>
<path d="M0 0 C1.65 0.33 3.3 0.66 5 1 C5 2.32 5 3.64 5 5 C2.03 4.505 2.03 4.505 -1 4 C-0.67 2.68 -0.34 1.36 0 0 Z " fill="#383838" transform="translate(184,190)"/>
<path d="M0 0 C2.64 0 5.28 0 8 0 C8 1.98 8 3.96 8 6 C7.34 6 6.68 6 6 6 C5.34 5.01 4.68 4.02 4 3 C1.94074861 2.27617533 1.94074861 2.27617533 0 2 C0 1.34 0 0.68 0 0 Z " fill="#464646" transform="translate(165,298)"/>
<path d="M0 0 C2.475 0.495 2.475 0.495 5 1 C4.67 2.65 4.34 4.3 4 6 C3.01 6 2.02 6 1 6 C0.67 4.02 0.34 2.04 0 0 Z " fill="#DEDEDE" transform="translate(194,297)"/>
<path d="M0 0 C0.33 0 0.66 0 1 0 C0.85831863 1.43791516 0.71148957 2.8753237 0.5625 4.3125 C0.48128906 5.11300781 0.40007812 5.91351563 0.31640625 6.73828125 C0 9 0 9 -1 12 C-1.66 12 -2.32 12 -3 12 C-2.14285714 3.42857143 -2.14285714 3.42857143 0 0 Z " fill="#090909" transform="translate(328,200)"/>
<path d="M0 0 C0.66 0.33 1.32 0.66 2 1 C0.84414715 4.91211733 -0.35534962 7.8745041 -3 11 C-2.88590407 9.54077307 -2.75834456 8.08259402 -2.625 6.625 C-2.55539063 5.81289062 -2.48578125 5.00078125 -2.4140625 4.1640625 C-2 2 -2 2 0 0 Z " fill="#D9D9D9" transform="translate(78,168)"/>
<path d="M0 0 C0.99 0 1.98 0 3 0 C2.67 1.65 2.34 3.3 2 5 C1.01 5.33 0.02 5.66 -1 6 C-1.66 5.67 -2.32 5.34 -3 5 C-1.125 1.125 -1.125 1.125 0 0 Z " fill="#E1E1E1" transform="translate(252,53)"/>
<path d="M0 0 C3.48670834 1.1094072 6.77484237 2.26337666 10 4 C10 4.66 10 5.32 10 6 C6.05879291 5.43697042 3.2491277 4.3208055 0 2 C0 1.34 0 0.68 0 0 Z " fill="#0E0E0E" transform="translate(90,312)"/>
<path d="M0 0 C3.69230769 0.69230769 3.69230769 0.69230769 5 2 C5.04063832 3.66617115 5.042721 5.33388095 5 7 C4.01 7 3.02 7 2 7 C1.814375 6.071875 1.814375 6.071875 1.625 5.125 C1.12802644 2.80879168 1.12802644 2.80879168 -1 1 C-0.67 0.67 -0.34 0.34 0 0 Z " fill="#090909" transform="translate(249,272)"/>
<path d="M0 0 C1.98 0.495 1.98 0.495 4 1 C4.33 2.65 4.66 4.3 5 6 C2.525 5.01 2.525 5.01 0 4 C0 2.68 0 1.36 0 0 Z " fill="#EAEAEA" transform="translate(34,97)"/>
<path d="M0 0 C3 1 3 1 4.1875 3.0625 C4.455625 3.701875 4.72375 4.34125 5 5 C3.68 5 2.36 5 1 5 C0.67 5.66 0.34 6.32 0 7 C-0.66 7 -1.32 7 -2 7 C-1.34 4.69 -0.68 2.38 0 0 Z " fill="#171717" transform="translate(293,92)"/>
<path d="M0 0 C2.32472205 2.85306797 3.7508258 5.54074837 5 9 C4.01 9.33 3.02 9.66 2 10 C-1.07692308 4.58461538 -1.07692308 4.58461538 -0.6875 1.625 C-0.460625 1.08875 -0.23375 0.5525 0 0 Z " fill="#262626" transform="translate(312,87)"/>
<path d="M0 0 C0.33 0 0.66 0 1 0 C1.04254356 1.99954746 1.04080783 4.00041636 1 6 C0 7 0 7 -2.5625 7.0625 C-3.7690625 7.0315625 -3.7690625 7.0315625 -5 7 C-5.33 6.34 -5.66 5.68 -6 5 C-5.195625 4.54625 -4.39125 4.0925 -3.5625 3.625 C-0.91143428 2.25274335 -0.91143428 2.25274335 0 0 Z " fill="#0E0E0E" transform="translate(45,233)"/>
<path d="M0 0 C-2.1385485 2.1385485 -3.13275314 2.42655063 -6 3 C-6.33 4.98 -6.66 6.96 -7 9 C-7.33 9 -7.66 9 -8 9 C-8 7.35 -8 5.7 -8 4 C-8.66 3.67 -9.32 3.34 -10 3 C-6.68152292 -0.06320961 -4.44849969 -0.3033068 0 0 Z " fill="#373737" transform="translate(139,26)"/>
<path d="M0 0 C-3.22515763 1.73662334 -6.51329166 2.8905928 -10 4 C-10.33 3.01 -10.66 2.02 -11 1 C-6.92630576 -1.03684712 -4.41062136 -1.0257259 0 0 Z " fill="#282828" transform="translate(112,13)"/>
<path d="M0 0 C4.455 0.99 4.455 0.99 9 2 C8.67 2.99 8.34 3.98 8 5 C3.545 4.01 3.545 4.01 -1 3 C-0.67 2.01 -0.34 1.02 0 0 Z " fill="#333333" transform="translate(118,323)"/>
<path d="M0 0 C-0.33 1.65 -0.66 3.3 -1 5 C-2.65 4.67 -4.3 4.34 -6 4 C-6 3.34 -6 2.68 -6 2 C-2.25 0 -2.25 0 0 0 Z " fill="#F1F1F1" transform="translate(44,232)"/>
<path d="M0 0 C0.33 0.66 0.66 1.32 1 2 C1.66 2.33 2.32 2.66 3 3 C2.34 5.64 1.68 8.28 1 11 C0.01 10.34 -0.98 9.68 -2 9 C-1.34 6.03 -0.68 3.06 0 0 Z " fill="#303030" transform="translate(324,210)"/>
<path d="M0 0 C0.33 2.97 0.66 5.94 1 9 C0.01 9 -0.98 9 -2 9 C-2.33 6.36 -2.66 3.72 -3 1 C-1 0 -1 0 0 0 Z " fill="#232323" transform="translate(6,192)"/>
<path d="M0 0 C0.66 0 1.32 0 2 0 C2.33 3.3 2.66 6.6 3 10 C2.34 10 1.68 10 1 10 C0.67 6.7 0.34 3.4 0 0 Z " fill="#0E0E0E" transform="translate(327,130)"/>
<path d="M0 0 C2.97 0 5.94 0 9 0 C9 1.65 9 3.3 9 5 C8.34 5 7.68 5 7 5 C6.67 4.34 6.34 3.68 6 3 C4.02111039 2.27306096 2.02045442 1.60183749 0 1 C0 0.67 0 0.34 0 0 Z " fill="#363636" transform="translate(164,23)"/>
<path d="M0 0 C2.64 0.33 5.28 0.66 8 1 C7.01 1.495 7.01 1.495 6 2 C6 2.66 6 3.32 6 4 C2.7 3.67 -0.6 3.34 -4 3 C-2.68 2.67 -1.36 2.34 0 2 C0 1.34 0 0.68 0 0 Z " fill="#373737" transform="translate(194,3)"/>
<path d="M0 0 C0 0.66 0 1.32 0 2 C-6.28571429 4.42857143 -6.28571429 4.42857143 -10 3 C-3.375 0 -3.375 0 0 0 Z " fill="#0C0C0C" transform="translate(215,324)"/>
<path d="M0 0 C3.465 1.98 3.465 1.98 7 4 C7 4.66 7 5.32 7 6 C2.25 5.25 2.25 5.25 0 3 C0 2.01 0 1.02 0 0 Z " fill="#0E0E0E" transform="translate(198,303)"/>
<path d="M0 0 C1.80330533 3.60661066 2.46599103 6.08393425 3 10 C1.68 10.33 0.36 10.66 -1 11 C-0.67 7.37 -0.34 3.74 0 0 Z " fill="#212121" transform="translate(222,292)"/>
<path d="M0 0 C1.27875 0.28875 2.5575 0.5775 3.875 0.875 C4.95394531 1.11863281 4.95394531 1.11863281 6.0546875 1.3671875 C8 2 8 2 10 4 C3.375 4.25 3.375 4.25 0 2 C0 1.34 0 0.68 0 0 Z " fill="#505050" transform="translate(120,188)"/>
<path d="M0 0 C1.98 0.495 1.98 0.495 4 1 C3.67 2.32 3.34 3.64 3 5 C1.68 4.67 0.36 4.34 -1 4 C-0.67 2.68 -0.34 1.36 0 0 Z " fill="#161616" transform="translate(278,153)"/>
<path d="M0 0 C1.98 0.495 1.98 0.495 4 1 C3.67 2.32 3.34 3.64 3 5 C1.68 4.67 0.36 4.34 -1 4 C-0.67 2.68 -0.34 1.36 0 0 Z " fill="#161616" transform="translate(117,153)"/>
<path d="M0 0 C0.99 0.33 1.98 0.66 3 1 C0.69 3.64 -1.62 6.28 -4 9 C-4.66 8.67 -5.32 8.34 -6 8 C-4.02 5.36 -2.04 2.72 0 0 Z " fill="#242424" transform="translate(80,93)"/>
<path d="M0 0 C0.99 0.33 1.98 0.66 3 1 C2.67 2.65 2.34 4.3 2 6 C1.01 6 0.02 6 -1 6 C-1.042721 4.33388095 -1.04063832 2.66617115 -1 1 C-0.67 0.67 -0.34 0.34 0 0 Z " fill="#ECECEC" transform="translate(197,28)"/>
<path d="M0 0 C2.97 0 5.94 0 9 0 C9 0.66 9 1.32 9 2 C6.36 2.33 3.72 2.66 1 3 C0.67 2.01 0.34 1.02 0 0 Z " fill="#191919" transform="translate(186,329)"/>
<path d="M0 0 C2.64 0 5.28 0 8 0 C8 0.99 8 1.98 8 3 C7.278125 2.79375 6.55625 2.5875 5.8125 2.375 C2.55358415 1.94047789 0.91695496 2.58319331 -2 4 C-1.34 2.68 -0.68 1.36 0 0 Z " fill="#1F1F1F" transform="translate(132,296)"/>
<path d="M0 0 C0.33 0 0.66 0 1 0 C1.144375 1.093125 1.28875 2.18625 1.4375 3.3125 C1.88288104 6.93122987 1.88288104 6.93122987 3 10 C1.68 9.34 0.36 8.68 -1 8 C-1.125 2.25 -1.125 2.25 0 0 Z " fill="#282828" transform="translate(120,179)"/>
<path d="M0 0 C1.125 3.75 1.125 3.75 0 6 C-0.66 6 -1.32 6 -2 6 C-2.66 7.32 -3.32 8.64 -4 10 C-4.33 9.34 -4.66 8.68 -5 8 C-4.00390625 6.0546875 -4.00390625 6.0546875 -2.5625 3.875 C-2.08941406 3.15054688 -1.61632812 2.42609375 -1.12890625 1.6796875 C-0.75636719 1.12539062 -0.38382813 0.57109375 0 0 Z " fill="#454545" transform="translate(241,164)"/>
<path d="M0 0 C1 3 1 3 0.25 5.625 C-1 8 -1 8 -4 9 C-2.25 2.25 -2.25 2.25 0 0 Z " fill="#131313" transform="translate(15,102)"/>
<path d="M0 0 C2.97 0.33 5.94 0.66 9 1 C9 1.66 9 2.32 9 3 C2.84765625 2.4140625 2.84765625 2.4140625 1 2 C0.67 1.34 0.34 0.68 0 0 Z " fill="#111111" transform="translate(125,326)"/>
<path d="M0 0 C0 0.66 0 1.32 0 2 C-2.31 2.66 -4.62 3.32 -7 4 C-7.33 3.01 -7.66 2.02 -8 1 C-2.25 -1.125 -2.25 -1.125 0 0 Z " fill="#212121" transform="translate(233,318)"/>
<path d="M0 0 C0.33 1.98 0.66 3.96 1 6 C-1.4375 5.625 -1.4375 5.625 -4 5 C-4.33 4.34 -4.66 3.68 -5 3 C-4.34 3 -3.68 3 -3 3 C-3 2.34 -3 1.68 -3 1 C-1 0 -1 0 0 0 Z " fill="#161616" transform="translate(107,296)"/>
<path d="M0 0 C3.5786304 1.65167557 6.74820188 3.78286492 10 6 C9.34 6.66 8.68 7.32 8 8 C6.66372225 6.85760183 5.33104612 5.71098945 4 4.5625 C3.2575 3.92441406 2.515 3.28632813 1.75 2.62890625 C1.1725 2.09136719 0.595 1.55382812 0 1 C0 0.67 0 0.34 0 0 Z " fill="#252525" transform="translate(93,252)"/>
<path d="M0 0 C0 3 0 3 -2.5 5.6875 C-3.325 6.450625 -4.15 7.21375 -5 8 C-5.33 7.34 -5.66 6.68 -6 6 C-4 4 -2 2 0 0 Z " fill="#101010" transform="translate(42,59)"/>
<path d="M0 0 C-2.95711562 1.64284201 -5.62008426 2.6442194 -9 3 C-9.66 2.34 -10.32 1.68 -11 1 C-6.87831311 -0.62950412 -4.29299643 -1.26264601 0 0 Z " fill="#3C3C3C" transform="translate(141,58)"/>
<path d="M0 0 C5.75 0.875 5.75 0.875 8 2 C8 2.66 8 3.32 8 4 C2.25 3.125 2.25 3.125 0 2 C0 1.34 0 0.68 0 0 Z " fill="#141414" transform="translate(224,12)"/>
<path d="M0 0 C-0.33 0.66 -0.66 1.32 -1 2 C-4.0625 2.625 -4.0625 2.625 -7 3 C-7 2.34 -7 1.68 -7 1 C-7.66 0.67 -8.32 0.34 -9 0 C-3.375 -1.125 -3.375 -1.125 0 0 Z " fill="#2E2E2E" transform="translate(137,5)"/>
<path d="M0 0 C0.33 0.99 0.66 1.98 1 3 C-0.32 4.32 -1.64 5.64 -3 7 C-3.33 6.01 -3.66 5.02 -4 4 C-2.68 2.68 -1.36 1.36 0 0 Z " fill="#1F1F1F" transform="translate(307,253)"/>
<path d="M0 0 C0.33 1.65 0.66 3.3 1 5 C-1.475 4.01 -1.475 4.01 -4 3 C-4.33 3.66 -4.66 4.32 -5 5 C-5 4.34 -5 3.68 -5 3 C-5.66 2.67 -6.32 2.34 -7 2 C-2.25 0 -2.25 0 0 0 Z " fill="#343434" transform="translate(111,33)"/>
<path d="M0 0 C0.99 0 1.98 0 3 0 C2.34 1.98 1.68 3.96 1 6 C0.01 6 -0.98 6 -2 6 C-1.34 4.02 -0.68 2.04 0 0 Z " fill="#212121" transform="translate(16,97)"/>
</svg>
